<svg width="74" height="49" viewBox="0 0 74 49" fill="none" xmlns="http://www.w3.org/2000/svg">
<path d="M25.67 0.829999C30.01 0.829999 33.3933 1.97333 35.82 4.26C38.2467 6.5 39.46 9.60333 39.46 13.57C39.46 16.6967 38.8067 19.7767 37.5 22.81C36.1933 25.8433 34.3967 28.5733 32.11 31C29.8233 33.4267 27.1633 35.3633 24.13 36.81C21.1433 38.2567 17.97 38.98 14.61 38.98C10.3633 38.98 6.98 37.86 4.46 35.62C1.94 33.38 0.68 30.23 0.68 26.17C0.68 22.9967 1.33333 19.9167 2.64 16.93C3.99333 13.9433 5.81333 11.2367 8.1 8.81C10.4333 6.33666 13.0933 4.4 16.08 3C19.1133 1.55333 22.31 0.829999 25.67 0.829999ZM24.55 2.09C22.59 2.09 20.77 2.83667 19.09 4.33C17.41 5.77666 15.94 7.73667 14.68 10.21C13.4667 12.6833 12.5333 15.4367 11.88 18.47C11.2267 21.5033 10.9 24.5367 10.9 27.57C10.9 31.21 11.3667 33.8233 12.3 35.41C13.2333 36.95 14.3767 37.72 15.73 37.72C17.7833 37.72 19.6267 36.95 21.26 35.41C22.8933 33.87 24.2933 31.84 25.46 29.32C26.6733 26.8 27.6067 24.0233 28.26 20.99C28.9133 17.9567 29.24 14.97 29.24 12.03C29.24 8.43667 28.7967 5.89333 27.91 4.4C27.0233 2.86 25.9033 2.09 24.55 2.09ZM72.7166 0.339997L73.5566 0.829999C72.4366 3.81667 70.9899 6.19667 69.2166 7.97C67.4899 9.74333 65.4599 10.63 63.1266 10.63C62.1466 10.63 61.0966 10.3967 59.9766 9.93C58.8566 9.46333 57.7599 9.02 56.6866 8.6C55.6599 8.18 54.7032 8.04 53.8166 8.18L47.3066 22.18C48.7999 21.3867 50.4332 20.78 52.2066 20.36C53.9799 19.94 55.9632 19.73 58.1566 19.73C62.3099 19.73 65.3432 20.4767 67.2566 21.97C69.1699 23.4633 70.1266 25.4933 70.1266 28.06C70.1266 30.6733 69.3799 33.03 67.8866 35.13C66.3932 37.23 64.4099 39.0967 61.9366 40.73C59.5099 42.3633 56.8032 43.7167 53.8166 44.79C50.8299 45.91 47.8199 46.75 44.7866 47.31C41.7532 47.9167 38.9299 48.2667 36.3166 48.36L36.6666 47.1C39.1399 47.1 41.7066 46.68 44.3666 45.84C47.0732 45 49.5699 43.7633 51.8566 42.13C54.1899 40.5433 56.0799 38.5833 57.5266 36.25C58.9732 33.87 59.6966 31.1867 59.6966 28.2C59.6966 26.24 59.1832 24.7 58.1566 23.58C57.1766 22.4133 55.4966 21.83 53.1166 21.83C52.4166 21.83 51.5066 21.9467 50.3866 22.18C49.2666 22.3667 47.8899 22.88 46.2566 23.72L45.5566 23.37L55.2166 1.74C56.5699 1.64666 57.7832 1.76333 58.8566 2.09C59.9299 2.37 61.0499 2.67333 62.2166 3C63.3832 3.32667 64.7366 3.49 66.2766 3.49C67.6766 3.49 68.9132 3.28 69.9866 2.86C71.0599 2.39333 71.9699 1.55333 72.7166 0.339997Z" fill="white"/>
</svg>
