<svg width="79" height="52" viewBox="0 0 79 52" fill="none" xmlns="http://www.w3.org/2000/svg">
<path d="M25.67 0.829999C30.01 0.829999 33.3933 1.97333 35.82 4.26C38.2467 6.5 39.46 9.60333 39.46 13.57C39.46 16.6967 38.8067 19.7767 37.5 22.81C36.1933 25.8433 34.3967 28.5733 32.11 31C29.8233 33.4267 27.1633 35.3633 24.13 36.81C21.1433 38.2567 17.97 38.98 14.61 38.98C10.3633 38.98 6.98 37.86 4.46 35.62C1.94 33.38 0.68 30.23 0.68 26.17C0.68 22.9967 1.33333 19.9167 2.64 16.93C3.99333 13.9433 5.81333 11.2367 8.1 8.81C10.4333 6.33666 13.0933 4.4 16.08 3C19.1133 1.55333 22.31 0.829999 25.67 0.829999ZM24.55 2.09C22.59 2.09 20.77 2.83667 19.09 4.33C17.41 5.77666 15.94 7.73667 14.68 10.21C13.4667 12.6833 12.5333 15.4367 11.88 18.47C11.2267 21.5033 10.9 24.5367 10.9 27.57C10.9 31.21 11.3667 33.8233 12.3 35.41C13.2333 36.95 14.3767 37.72 15.73 37.72C17.7833 37.72 19.6267 36.95 21.26 35.41C22.8933 33.87 24.2933 31.84 25.46 29.32C26.6733 26.8 27.6067 24.0233 28.26 20.99C28.9133 17.9567 29.24 14.97 29.24 12.03C29.24 8.43667 28.7967 5.89333 27.91 4.4C27.0233 2.86 25.9033 2.09 24.55 2.09ZM66.5566 0.829999C70.4299 0.829999 73.3932 1.88 75.4466 3.98C77.5466 6.03333 78.5966 9.27667 78.5966 13.71C78.5966 17.6767 77.8032 21.4333 76.2166 24.98C74.6299 28.5267 72.5299 31.8167 69.9166 34.85C67.3032 37.8367 64.4099 40.4733 61.2366 42.76C58.1099 45.0467 54.9599 46.9133 51.7866 48.36C48.6132 49.8067 45.6966 50.74 43.0366 51.16L42.6166 49.76C44.9966 49.1067 47.4232 47.9867 49.8966 46.4C52.3699 44.86 54.7032 42.9 56.8966 40.52C59.0899 38.14 61.0499 35.41 62.7766 32.33C64.5499 29.25 65.9266 25.8667 66.9066 22.18C67.9332 18.4933 68.4466 14.5733 68.4466 10.42C68.4466 7.15333 68.1199 4.98333 67.4666 3.91C66.8599 2.79 65.9732 2.23 64.8066 2.23C63.2199 2.23 61.7732 2.93 60.4666 4.33C59.1599 5.73 58.0166 7.52666 57.0366 9.72C56.1032 11.8667 55.3799 14.13 54.8666 16.51C54.3999 18.8433 54.1666 21.0133 54.1666 23.02C54.1666 25.26 54.4932 26.8467 55.1466 27.78C55.7999 28.7133 56.6166 29.18 57.5966 29.18C58.6699 29.18 59.7899 28.6433 60.9566 27.57C62.1232 26.4967 63.1266 24.63 63.9666 21.97L65.1566 22.32C64.4099 24.84 63.4532 26.8467 62.2866 28.34C61.1199 29.8333 59.7899 30.9067 58.2966 31.56C56.8499 32.1667 55.3099 32.47 53.6766 32.47C50.8766 32.47 48.5199 31.5833 46.6066 29.81C44.7399 28.0367 43.8066 25.4 43.8066 21.9C43.8066 19.1467 44.3899 16.51 45.5566 13.99C46.7699 11.47 48.4266 9.23 50.5266 7.27C52.6266 5.26333 55.0299 3.7 57.7366 2.58C60.4899 1.41333 63.4299 0.829999 66.5566 0.829999Z" fill="white"/>
</svg>
