<svg width="160" height="52" viewBox="0 0 160 52" fill="none" xmlns="http://www.w3.org/2000/svg">
<path d="M24.26 13.83C27.76 13.83 30.5133 14.4833 32.52 15.79C34.5267 17.0967 35.53 18.8933 35.53 21.18C35.53 22.9533 34.9467 24.6567 33.78 26.29C32.6133 27.9233 31.0967 29.4867 29.23 30.98C27.41 32.4267 25.4267 33.8033 23.28 35.11C21.18 36.4167 19.15 37.6533 17.19 38.82C15.2767 39.94 13.6433 40.99 12.29 41.97C13.4567 41.97 14.74 42.1333 16.14 42.46C17.5867 42.7867 19.08 43.1133 20.62 43.44C22.2067 43.7667 23.7233 43.93 25.17 43.93C26.9433 43.93 28.3667 43.65 29.44 43.09C30.56 42.53 31.12 41.69 31.12 40.57C31.12 39.17 30.28 38.0267 28.6 37.14L29.37 36.23C30.7233 36.93 31.7033 37.77 32.31 38.75C32.9167 39.6833 33.22 40.8267 33.22 42.18C33.22 43.6733 32.8467 45.1433 32.1 46.59C31.4 47.99 30.2567 49.1567 28.67 50.09C27.0833 50.9767 24.9833 51.42 22.37 51.42C20.8767 51.42 19.4067 51.2567 17.96 50.93C16.5133 50.6033 15.0433 50.2767 13.55 49.95C12.0567 49.5767 10.4233 49.3667 8.65 49.32C6.87667 49.2267 5.38333 49.3433 4.17 49.67C3.00333 49.95 1.69667 50.3933 0.25 51L0.6 49.53C1.58 48.7367 2.86333 47.78 4.45 46.66C6.03667 45.4933 7.76333 44.1867 9.63 42.74C11.5433 41.2933 13.4333 39.7533 15.3 38.12C17.1667 36.44 18.8933 34.69 20.48 32.87C22.0667 31.05 23.3267 29.1833 24.26 27.27C25.1933 25.3567 25.66 23.42 25.66 21.46C25.66 19.5933 25.1933 18.1933 24.26 17.26C23.3267 16.28 22.02 15.79 20.34 15.79C18.9867 15.79 17.5867 16.0933 16.14 16.7C14.74 17.3067 13.4333 18.1467 12.22 19.22C11.0533 20.2467 10.0967 21.4133 9.35 22.72C8.65 23.98 8.3 25.2867 8.3 26.64C8.3 27.76 8.60333 28.6 9.21 29.16C9.86333 29.72 10.9133 30 12.36 30C13.6667 30 14.7867 29.7667 15.72 29.3C16.7 28.7867 17.7267 28.0633 18.8 27.13L19.64 28.11C18.3333 29.3233 17.0033 30.1867 15.65 30.7C14.2967 31.2133 13.0367 31.47 11.87 31.47C11.1233 31.47 10.33 31.3533 9.49 31.12C8.69667 30.84 8.02 30.3733 7.46 29.72C6.9 29.02 6.62 28.0167 6.62 26.71C6.62 25.17 7.06333 23.6533 7.95 22.16C8.83667 20.62 10.05 19.22 11.59 17.96C13.1767 16.7 15.0433 15.6967 17.19 14.95C19.3367 14.2033 21.6933 13.83 24.26 13.83ZM66.1309 13.83C70.4709 13.83 73.8543 14.9733 76.2809 17.26C78.7076 19.5 79.9209 22.6033 79.9209 26.57C79.9209 29.6967 79.2676 32.7767 77.9609 35.81C76.6543 38.8433 74.8576 41.5733 72.5709 44C70.2843 46.4267 67.6243 48.3633 64.5909 49.81C61.6043 51.2567 58.4309 51.98 55.0709 51.98C50.8243 51.98 47.4409 50.86 44.9209 48.62C42.4009 46.38 41.1409 43.23 41.1409 39.17C41.1409 35.9967 41.7943 32.9167 43.1009 29.93C44.4543 26.9433 46.2743 24.2367 48.5609 21.81C50.8943 19.3367 53.5543 17.4 56.5409 16C59.5743 14.5533 62.7709 13.83 66.1309 13.83ZM65.0109 15.09C63.0509 15.09 61.2309 15.8367 59.5509 17.33C57.8709 18.7767 56.4009 20.7367 55.1409 23.21C53.9276 25.6833 52.9943 28.4367 52.3409 31.47C51.6876 34.5033 51.3609 37.5367 51.3609 40.57C51.3609 44.21 51.8276 46.8233 52.7609 48.41C53.6943 49.95 54.8376 50.72 56.1909 50.72C58.2443 50.72 60.0876 49.95 61.7209 48.41C63.3543 46.87 64.7543 44.84 65.9209 42.32C67.1343 39.8 68.0676 37.0233 68.7209 33.99C69.3743 30.9567 69.7009 27.97 69.7009 25.03C69.7009 21.4367 69.2576 18.8933 68.3709 17.4C67.4843 15.86 66.3643 15.09 65.0109 15.09ZM105.198 13.83C108.698 13.83 111.451 14.4833 113.458 15.79C115.464 17.0967 116.468 18.8933 116.468 21.18C116.468 22.9533 115.884 24.6567 114.718 26.29C113.551 27.9233 112.034 29.4867 110.168 30.98C108.348 32.4267 106.364 33.8033 104.218 35.11C102.118 36.4167 100.088 37.6533 98.1275 38.82C96.2142 39.94 94.5808 40.99 93.2275 41.97C94.3942 41.97 95.6775 42.1333 97.0775 42.46C98.5242 42.7867 100.018 43.1133 101.558 43.44C103.144 43.7667 104.661 43.93 106.108 43.93C107.881 43.93 109.304 43.65 110.378 43.09C111.498 42.53 112.058 41.69 112.058 40.57C112.058 39.17 111.218 38.0267 109.538 37.14L110.308 36.23C111.661 36.93 112.641 37.77 113.248 38.75C113.854 39.6833 114.158 40.8267 114.158 42.18C114.158 43.6733 113.784 45.1433 113.038 46.59C112.338 47.99 111.194 49.1567 109.608 50.09C108.021 50.9767 105.921 51.42 103.308 51.42C101.814 51.42 100.344 51.2567 98.8975 50.93C97.4508 50.6033 95.9808 50.2767 94.4875 49.95C92.9942 49.5767 91.3608 49.3667 89.5875 49.32C87.8142 49.2267 86.3208 49.3433 85.1075 49.67C83.9408 49.95 82.6342 50.3933 81.1875 51L81.5375 49.53C82.5175 48.7367 83.8008 47.78 85.3875 46.66C86.9742 45.4933 88.7008 44.1867 90.5675 42.74C92.4808 41.2933 94.3708 39.7533 96.2375 38.12C98.1042 36.44 99.8308 34.69 101.417 32.87C103.004 31.05 104.264 29.1833 105.198 27.27C106.131 25.3567 106.598 23.42 106.598 21.46C106.598 19.5933 106.131 18.1933 105.198 17.26C104.264 16.28 102.958 15.79 101.278 15.79C99.9242 15.79 98.5242 16.0933 97.0775 16.7C95.6775 17.3067 94.3708 18.1467 93.1575 19.22C91.9908 20.2467 91.0342 21.4133 90.2875 22.72C89.5875 23.98 89.2375 25.2867 89.2375 26.64C89.2375 27.76 89.5408 28.6 90.1475 29.16C90.8008 29.72 91.8508 30 93.2975 30C94.6042 30 95.7242 29.7667 96.6575 29.3C97.6375 28.7867 98.6642 28.0633 99.7375 27.13L100.578 28.11C99.2708 29.3233 97.9408 30.1867 96.5875 30.7C95.2342 31.2133 93.9742 31.47 92.8075 31.47C92.0608 31.47 91.2675 31.3533 90.4275 31.12C89.6342 30.84 88.9575 30.3733 88.3975 29.72C87.8375 29.02 87.5575 28.0167 87.5575 26.71C87.5575 25.17 88.0008 23.6533 88.8875 22.16C89.7742 20.62 90.9875 19.22 92.5275 17.96C94.1142 16.7 95.9808 15.6967 98.1275 14.95C100.274 14.2033 102.631 13.83 105.198 13.83ZM158.618 0.459996L159.038 1.86C156.518 2.56 153.998 3.70333 151.478 5.29C148.958 6.87666 146.555 8.90666 144.268 11.38C142.028 13.8067 140.022 16.6067 138.248 19.78C136.475 22.9067 135.075 26.3833 134.048 30.21C133.022 34.0367 132.508 38.0967 132.508 42.39C132.508 45.6567 132.812 47.85 133.418 48.97C134.072 50.0433 134.982 50.58 136.148 50.58C137.688 50.58 139.112 49.88 140.418 48.48C141.772 47.08 142.915 45.3067 143.848 43.16C144.782 40.9667 145.505 38.68 146.018 36.3C146.532 33.92 146.788 31.75 146.788 29.79C146.788 27.5033 146.438 25.9167 145.738 25.03C145.085 24.0967 144.268 23.63 143.288 23.63C142.215 23.63 141.095 24.1667 139.928 25.24C138.808 26.3133 137.805 28.18 136.918 30.84L135.798 30.49C136.498 27.9233 137.432 25.9167 138.598 24.47C139.812 22.9767 141.142 21.9267 142.588 21.32C144.082 20.6667 145.622 20.34 147.208 20.34C150.055 20.34 152.412 21.2267 154.278 23C156.192 24.7733 157.148 27.41 157.148 30.91C157.148 33.6633 156.542 36.3 155.328 38.82C154.162 41.34 152.528 43.6033 150.428 45.61C148.328 47.57 145.902 49.1333 143.148 50.3C140.442 51.42 137.525 51.98 134.398 51.98C130.525 51.98 127.538 50.9533 125.438 48.9C123.385 46.8 122.358 43.5333 122.358 39.1C122.358 34.9933 123.152 31.12 124.738 27.48C126.372 23.7933 128.518 20.41 131.178 17.33C133.838 14.2033 136.755 11.4733 139.928 9.14C143.148 6.80667 146.368 4.89333 149.588 3.4C152.855 1.90667 155.865 0.926665 158.618 0.459996Z" fill="white"/>
</svg>
