<svg width="126" height="57" viewBox="0 0 126 57" fill="none" xmlns="http://www.w3.org/2000/svg">
<path d="M13.25 53.2C13.9967 53.2 14.8133 52.8033 15.7 52.01C16.5867 51.2167 17.4967 50.0733 18.43 48.58C19.3633 47.04 20.2733 45.1733 21.16 42.98C22.0467 40.7867 22.8633 38.2433 23.61 35.35L22.07 42.98C20.9033 46.4333 19.62 49.1867 18.22 51.24C16.82 53.2933 15.3267 54.7633 13.74 55.65C12.1533 56.5367 10.4967 56.98 8.77 56.98C6.15667 56.98 4.19667 56.21 2.89 54.67C1.58333 53.13 0.93 51.03 0.93 48.37C0.93 45.85 1.35 43.2133 2.19 40.46C3.07667 37.7067 4.24333 35.0467 5.69 32.48C7.18333 29.9133 8.84 27.6033 10.66 25.55C12.5267 23.4967 14.4867 21.8633 16.54 20.65C18.64 19.4367 20.6933 18.83 22.7 18.83C24.24 18.83 25.43 19.4367 26.27 20.65C27.11 21.8633 27.3667 23.7533 27.04 26.32L26.27 26.74C26.5033 25.06 26.41 23.7533 25.99 22.82C25.6167 21.8867 24.9633 21.42 24.03 21.42C23.0967 21.42 22.0467 21.9567 20.88 23.03C19.76 24.1033 18.64 25.5733 17.52 27.44C16.4 29.3067 15.35 31.43 14.37 33.81C13.4367 36.1433 12.69 38.6167 12.13 41.23C11.57 43.7967 11.29 46.34 11.29 48.86C11.29 50.4467 11.4533 51.5667 11.78 52.22C12.1067 52.8733 12.5967 53.2 13.25 53.2ZM28.09 19.88C30.0967 19.8333 31.9167 19.74 33.55 19.6C35.1833 19.4133 36.7467 19.1567 38.24 18.83L29.07 50.05C28.93 50.6567 28.8133 51.24 28.72 51.8C28.6733 52.3133 28.7433 52.7333 28.93 53.06C29.1633 53.3867 29.5367 53.55 30.05 53.55C30.6567 53.55 31.3333 53.2 32.08 52.5C32.8267 51.7533 33.5967 50.26 34.39 48.02L35.65 44.66H36.98L35.23 49.77C34.5767 51.6833 33.7367 53.1533 32.71 54.18C31.6833 55.2067 30.5867 55.93 29.42 56.35C28.2533 56.77 27.11 56.98 25.99 56.98C23.5633 56.98 21.8367 56.2567 20.81 54.81C20.11 53.7833 19.7833 52.5233 19.83 51.03C19.9233 49.49 20.25 47.74 20.81 45.78L28.09 19.88ZM51.0232 56H41.1532L49.6232 25.76C49.8565 25.1067 49.9965 24.5233 50.0432 24.01C50.1365 23.45 50.0899 23.03 49.9032 22.75C49.7165 22.4233 49.3665 22.26 48.8532 22.26C48.0132 22.26 47.2432 22.6567 46.5432 23.45C45.8899 24.1967 45.1665 25.6433 44.3732 27.79L43.0432 31.36H41.7132L43.6032 26.04C44.5365 23.38 45.7499 21.5133 47.2432 20.44C48.7832 19.3667 50.5799 18.83 52.6332 18.83C54.3132 18.83 55.5965 19.1333 56.4832 19.74C57.3699 20.3 57.9532 21.07 58.2332 22.05C58.5599 23.03 58.6765 24.1033 58.5832 25.27C58.5365 26.39 58.3732 27.51 58.0932 28.63L51.0232 56ZM53.2632 44.17C55.0832 39.0833 56.7632 34.9067 58.3032 31.64C59.8899 28.3267 61.4299 25.7367 62.9232 23.87C64.4632 22.0033 66.0265 20.6967 67.6132 19.95C69.1999 19.2033 70.9032 18.83 72.7232 18.83C74.9632 18.83 76.5732 19.32 77.5532 20.3C78.5332 21.28 79.0232 22.5867 79.0232 24.22C79.0232 25.8067 78.7199 27.5333 78.1132 29.4L71.2532 50.05C70.7865 51.3567 70.6699 52.2667 70.9032 52.78C71.1365 53.2933 71.5565 53.55 72.1632 53.55C72.7699 53.55 73.4465 53.2233 74.1932 52.57C74.9399 51.87 75.7332 50.3533 76.5732 48.02L77.8332 44.66H79.1632L77.4132 49.77C76.7599 51.73 75.8965 53.2233 74.8232 54.25C73.7965 55.2767 72.6765 55.9767 71.4632 56.35C70.2965 56.77 69.1532 56.98 68.0332 56.98C66.6799 56.98 65.5365 56.77 64.6032 56.35C63.6699 55.9767 62.9465 55.4167 62.4332 54.67C61.8265 53.7367 61.5232 52.57 61.5232 51.17C61.5699 49.7233 61.9432 47.95 62.6432 45.85L68.9432 26.95C69.2232 26.2033 69.4099 25.48 69.5032 24.78C69.5965 24.08 69.5732 23.4967 69.4332 23.03C69.2932 22.5633 68.8965 22.33 68.2432 22.33C67.3565 22.33 66.3532 22.9133 65.2332 24.08C64.1132 25.2 62.9232 26.7867 61.6632 28.84C60.4499 30.8467 59.2365 33.2033 58.0232 35.91C56.8099 38.6167 55.6432 41.51 54.5232 44.59C53.4032 47.6233 52.3999 50.75 51.5132 53.97L53.2632 44.17ZM111.891 50.05C111.471 51.17 111.354 52.0333 111.541 52.64C111.774 53.2467 112.218 53.55 112.871 53.55C113.478 53.55 114.131 53.2 114.831 52.5C115.578 51.7533 116.348 50.26 117.141 48.02L118.331 44.66H119.661L117.981 49.77C117.374 51.6833 116.558 53.1767 115.531 54.25C114.504 55.2767 113.384 55.9767 112.171 56.35C111.004 56.77 109.861 56.98 108.741 56.98C105.848 56.98 104.004 55.9067 103.211 53.76C102.791 52.8733 102.604 51.7767 102.651 50.47C102.698 49.1167 102.978 47.5767 103.491 45.85L113.221 9.31C113.688 7.72333 113.641 6.55666 113.081 5.81C112.521 5.06333 111.098 4.69 108.811 4.69L109.231 3.22C112.544 3.17333 115.508 2.91666 118.121 2.45C120.734 1.93666 123.231 1.23667 125.611 0.349999L111.891 50.05ZM95.0909 53.48C95.8843 53.48 96.8176 52.9667 97.8909 51.94C98.9643 50.9133 100.108 49.3967 101.321 47.39C102.534 45.3367 103.701 42.84 104.821 39.9C105.941 36.9133 106.944 33.5067 107.831 29.68L106.781 37.24C105.241 41.72 103.701 45.43 102.161 48.37C100.668 51.31 99.0109 53.48 97.1909 54.88C95.4176 56.28 93.2943 56.98 90.8209 56.98C89.2809 56.98 87.8809 56.63 86.6209 55.93C85.3609 55.23 84.3576 54.18 83.6109 52.78C82.8643 51.3333 82.4909 49.4667 82.4909 47.18C82.4909 45.0333 82.8176 42.7 83.4709 40.18C84.1709 37.6133 85.1743 35.0933 86.4809 32.62C87.8343 30.1467 89.4443 27.86 91.3109 25.76C93.2243 23.66 95.3943 21.98 97.8209 20.72C100.248 19.46 102.908 18.83 105.801 18.83C107.294 18.83 108.391 19.18 109.091 19.88C109.838 20.5333 110.281 21.4667 110.421 22.68L109.861 24.08C109.674 22.8667 109.348 21.9567 108.881 21.35C108.414 20.7433 107.714 20.44 106.781 20.44C105.568 20.44 104.308 21 103.001 22.12C101.694 23.1933 100.434 24.6867 99.2209 26.6C98.0543 28.4667 96.9809 30.6133 96.0009 33.04C95.0209 35.42 94.2509 37.9633 93.6909 40.67C93.1309 43.33 92.8509 45.99 92.8509 48.65C92.8509 50.2367 93.0143 51.45 93.3409 52.29C93.7143 53.0833 94.2976 53.48 95.0909 53.48Z" fill="white"/>
</svg>
