<svg width="51" height="48" viewBox="0 0 51 48" fill="none" xmlns="http://www.w3.org/2000/svg">
<path d="M42.73 41.82C43.71 42.66 44.6433 43.4067 45.53 44.06C46.3233 44.62 47.14 45.1333 47.98 45.6C48.82 46.0667 49.5667 46.3 50.22 46.3V47H46.3C44.5267 47 42.9633 46.6733 41.61 46.02C40.2567 45.32 38.9733 44.5033 37.76 43.57L30.83 38.11C28.31 41.5167 25.6967 43.9667 22.99 45.46C20.33 46.9067 17.3667 47.63 14.1 47.63C12 47.63 10.11 47.3267 8.43 46.72C6.79667 46.0667 5.39667 45.2267 4.23 44.2C3.11 43.1267 2.24667 41.89 1.64 40.49C1.03333 39.09 0.73 37.6433 0.73 36.15C0.73 32.93 1.54667 30.2 3.18 27.96C4.81333 25.6733 7.54333 23.62 11.37 21.8C9.13 19.9333 7.40333 18.09 6.19 16.27C4.97667 14.45 4.37 12.56 4.37 10.6C4.37 9.24666 4.62667 7.96333 5.14 6.75C5.65333 5.53667 6.37667 4.48667 7.31 3.6C8.24333 2.66666 9.31667 1.94333 10.53 1.43C11.79 0.869997 13.1667 0.589997 14.66 0.589997C16.4333 0.589997 17.9967 0.89333 19.35 1.5C20.7033 2.10666 21.8467 2.9 22.78 3.88C23.7133 4.86 24.4133 6.00333 24.88 7.31C25.3467 8.57 25.58 9.85333 25.58 11.16C25.58 12.8867 25.0433 14.6833 23.97 16.55C22.8967 18.4167 21.03 20.12 18.37 21.66C20.5167 23.4333 22.7333 25.2767 25.02 27.19C27.3067 29.1033 29.57 30.9467 31.81 32.72C32.7433 30.8533 33.49 28.9867 34.05 27.12C34.6567 25.2533 35.1233 23.55 35.45 22.01C35.8233 20.4233 36.0567 19.0467 36.15 17.88C36.29 16.7133 36.36 15.8733 36.36 15.36C36.36 14.7533 36.1267 14.2167 35.66 13.75C35.1933 13.2367 34.68 12.98 34.12 12.98V12.28H41.33V12.98C40.8633 12.98 40.3733 13.2133 39.86 13.68C39.3933 14.1 39.1133 14.6367 39.02 15.29C38.74 17.7167 38.3433 20.0733 37.83 22.36C37.41 24.32 36.85 26.3733 36.15 28.52C35.45 30.6667 34.5867 32.5333 33.56 34.12C34.4933 35.0067 35.4967 35.8933 36.57 36.78C37.6433 37.6667 38.6933 38.53 39.72 39.37L42.73 41.82ZM8.71 10.39C9.03667 12.0233 9.94667 13.6333 11.44 15.22C12.9333 16.8067 14.5433 18.3233 16.27 19.77C18.09 19.0233 19.49 17.9033 20.47 16.41C21.45 14.87 21.94 13.3767 21.94 11.93C21.94 10.81 21.7533 9.71333 21.38 8.64C21.0533 7.56666 20.54 6.61 19.84 5.77C19.1867 4.88333 18.3233 4.18333 17.25 3.67C16.2233 3.11 15.01 2.83 13.61 2.83C12.07 2.83 10.8333 3.43666 9.9 4.65C9.01333 5.86333 8.57 7.31 8.57 8.99C8.57 9.22333 8.57 9.45666 8.57 9.69C8.57 9.92333 8.61667 10.1567 8.71 10.39ZM16.13 45.18C18.4167 45.18 20.68 44.3867 22.92 42.8C25.2067 41.2133 27.2833 39.16 29.15 36.64C26.5833 34.4933 23.97 32.3233 21.31 30.13C18.65 27.89 16.0367 25.72 13.47 23.62C10.6233 24.9733 8.52333 26.6533 7.17 28.66C5.81667 30.6667 5.14 32.6967 5.14 34.75C5.14 36.01 5.42 37.2467 5.98 38.46C6.54 39.6733 7.31 40.77 8.29 41.75C9.27 42.73 10.4367 43.5467 11.79 44.2C13.1433 44.8067 14.59 45.1333 16.13 45.18Z" fill="white"/>
</svg>
