<svg width="152" height="69" viewBox="0 0 152 69" fill="none" xmlns="http://www.w3.org/2000/svg">
<path d="M42.91 21.54C42.0233 21.54 41.0667 22.03 40.04 23.01C39.0133 23.99 37.9867 25.32 36.96 27C35.98 28.68 35.0467 30.6167 34.16 32.81C33.32 35.0033 32.5967 37.29 31.99 39.67L33.46 32.53C34.7667 28.9833 36.0967 26.1367 37.45 23.99C38.85 21.8433 40.32 20.28 41.86 19.3C43.4 18.32 45.0333 17.83 46.76 17.83C49.6067 17.83 51.7533 18.7633 53.2 20.63C54.6933 22.45 55.44 25.11 55.44 28.61C55.44 30.7567 55.1367 33.09 54.53 35.61C53.9233 38.0833 53.0367 40.5333 51.87 42.96C50.75 45.34 49.3267 47.51 47.6 49.47C45.92 51.43 43.9833 53.0167 41.79 54.23C39.5967 55.3967 37.17 55.98 34.51 55.98C32.97 55.98 31.5933 55.7 30.38 55.14C29.1667 54.58 28.2567 53.8333 27.65 52.9L28.21 51.78C28.6767 52.5733 29.19 53.1333 29.75 53.46C30.31 53.7867 30.9633 53.95 31.71 53.95C33.1567 53.95 34.5567 53.39 35.91 52.27C37.2633 51.15 38.5233 49.6567 39.69 47.79C40.8567 45.9233 41.8833 43.8467 42.77 41.56C43.7033 39.2267 44.4033 36.8467 44.87 34.42C45.3833 31.9467 45.64 29.59 45.64 27.35C45.64 25.0633 45.3833 23.5233 44.87 22.73C44.3567 21.9367 43.7033 21.54 42.91 21.54ZM13.02 52.48C13.8133 52.48 14.7 52.0133 15.68 51.08C16.7067 50.1467 17.78 48.7467 18.9 46.88C20.02 44.9667 21.1167 42.61 22.19 39.81C23.2633 37.01 24.2433 33.79 25.13 30.15L23.94 37.71C22.4467 41.8633 20.9767 45.2933 19.53 48C18.13 50.7067 16.5667 52.7133 14.84 54.02C13.16 55.3267 11.1533 55.98 8.82 55.98C7.28 55.98 5.88 55.63 4.62 54.93C3.36 54.23 2.35667 53.1333 1.61 51.64C0.863333 50.1467 0.49 48.2333 0.49 45.9C0.49 43.8467 0.793333 41.56 1.4 39.04C2.00667 36.52 2.91667 34.0233 4.13 31.55C5.39 29.0767 6.93 26.8133 8.75 24.76C10.57 22.66 12.6467 20.98 14.98 19.72C17.36 18.46 19.9967 17.83 22.89 17.83C24.57 17.83 25.7833 18.18 26.53 18.88C27.3233 19.5333 27.8367 20.4667 28.07 21.68L27.51 23.08C27.1833 21.82 26.7633 20.91 26.25 20.35C25.7367 19.7433 24.9433 19.44 23.87 19.44C22.7033 19.44 21.49 20 20.23 21.12C19.0167 22.1933 17.8033 23.6867 16.59 25.6C15.4233 27.5133 14.35 29.6833 13.37 32.11C12.4367 34.5367 11.69 37.08 11.13 39.74C10.57 42.4 10.29 45.0367 10.29 47.65C10.29 49.2367 10.5 50.45 10.92 51.29C11.3867 52.0833 12.0867 52.48 13.02 52.48ZM47.18 1.52C46.4333 1.52 45.7567 1.66 45.15 1.94C44.59 2.17333 44.0533 2.5 43.54 2.92C42.9333 3.48 42.3733 4.27333 41.86 5.3C41.3933 6.28 40.95 7.47 40.53 8.87C40.11 10.2233 39.6667 11.74 39.2 13.42L24.78 67.18C22.82 67.2267 21.0233 67.32 19.39 67.46C17.8033 67.6 16.24 67.8333 14.7 68.16L27.79 19.44C28.8167 15.4733 29.9833 12.2067 31.29 9.64C32.5967 7.02666 34.1833 4.97333 36.05 3.48C37.3567 2.40666 38.85 1.61333 40.53 1.1C42.21 0.539996 43.9833 0.259995 45.85 0.259995C48.79 0.259995 51.0767 0.866663 52.71 2.08C54.3433 3.29333 55.16 4.92666 55.16 6.98C55.16 7.91333 54.88 8.87 54.32 9.85C53.76 10.7833 52.99 11.5533 52.01 12.16C51.0767 12.7667 49.98 13.07 48.72 13.07C47.32 13.07 46.2233 12.7433 45.43 12.09C44.6367 11.4367 44.24 10.5033 44.24 9.29C44.24 7.75 44.7067 6.37333 45.64 5.16C46.62 3.94666 47.9267 3.03666 49.56 2.43C49.3733 2.19666 49.07 1.98666 48.65 1.8C48.23 1.61333 47.74 1.52 47.18 1.52ZM68.4786 55H58.6086L67.1486 24.76C67.3353 24.1533 67.4286 23.5933 67.4286 23.08C67.4753 22.52 67.4286 22.0767 67.2886 21.75C67.1486 21.4233 66.7986 21.26 66.2386 21.26C65.4453 21.26 64.6986 21.68 63.9986 22.52C63.2986 23.36 62.5753 24.7833 61.8286 26.79L60.4986 30.36H59.1686L61.0586 25.04C61.7586 23.1733 62.5986 21.7267 63.5786 20.7C64.5586 19.6733 65.6553 18.95 66.8686 18.53C68.0819 18.0633 69.2953 17.83 70.5086 17.83C72.0953 17.83 73.3086 18.1333 74.1486 18.74C74.9886 19.3 75.5486 20.07 75.8286 21.05C76.1086 22.03 76.2019 23.1033 76.1086 24.27C76.0153 25.39 75.8286 26.51 75.5486 27.63L68.4786 55ZM85.4186 25.95C85.6519 25.1567 85.8153 24.4567 85.9086 23.85C86.0486 23.1967 86.0486 22.6833 85.9086 22.31C85.7686 21.9367 85.4186 21.75 84.8586 21.75C83.7853 21.75 82.6419 22.4033 81.4286 23.71C80.2153 24.97 78.9553 26.7667 77.6486 29.1C76.3886 31.4333 75.1286 34.21 73.8686 37.43C72.6086 40.65 71.4186 44.1733 70.2986 48L70.6486 43.17C72.6086 36.9633 74.5219 32.0167 76.3886 28.33C78.2553 24.5967 80.2619 21.9133 82.4086 20.28C84.5553 18.6467 86.9819 17.83 89.6886 17.83C91.2286 17.83 92.3953 18.11 93.1886 18.67C94.0286 19.23 94.5886 20 94.8686 20.98C95.1486 21.96 95.2186 23.08 95.0786 24.34C94.9853 25.6 94.7519 26.9533 94.3786 28.4L86.8886 55H76.8786L85.4186 25.95ZM104.109 25.95C104.529 24.7367 104.715 23.7333 104.669 22.94C104.669 22.1467 104.342 21.75 103.689 21.75C102.802 21.75 101.775 22.31 100.609 23.43C99.4886 24.5033 98.2753 26.16 96.9686 28.4C95.6619 30.5933 94.3086 33.3933 92.9086 36.8C91.5086 40.16 90.1086 44.1267 88.7086 48.7L88.8486 44.92C90.5286 39.6 92.1153 35.19 93.6086 31.69C95.1486 28.19 96.6886 25.4367 98.2286 23.43C99.8153 21.3767 101.449 19.93 103.129 19.09C104.809 18.25 106.605 17.83 108.519 17.83C110.525 17.83 111.972 18.32 112.859 19.3C113.745 20.2333 114.189 21.4933 114.189 23.08C114.235 24.6667 113.932 26.44 113.279 28.4L106.419 49.05C105.952 50.4033 105.835 51.3367 106.069 51.85C106.349 52.3167 106.769 52.55 107.329 52.55C107.935 52.55 108.612 52.2233 109.359 51.57C110.105 50.87 110.899 49.3533 111.739 47.02L112.999 43.66H114.329L112.579 48.77C111.925 50.73 111.062 52.2233 109.989 53.25C108.962 54.2767 107.842 54.9767 106.629 55.35C105.462 55.77 104.295 55.98 103.129 55.98C101.775 55.98 100.632 55.7467 99.6986 55.28C98.7653 54.86 98.0419 54.2533 97.5286 53.46C96.9219 52.5267 96.6419 51.3367 96.6886 49.89C96.7819 48.4433 97.1553 46.7633 97.8086 44.85L104.109 25.95ZM132.84 54.44C133.96 54.44 134.94 53.9267 135.78 52.9C136.62 51.8267 137.273 50.52 137.74 48.98C138.253 47.3933 138.51 45.8067 138.51 44.22C138.51 42.3533 138.16 40.9067 137.46 39.88C136.76 38.8067 135.85 38.2467 134.73 38.2L134.31 37.78C136.503 37.5 138.626 37.5233 140.68 37.85C142.733 38.13 144.413 38.7833 145.72 39.81C147.073 40.79 147.75 42.19 147.75 44.01C147.75 45.41 147.306 46.81 146.42 48.21C145.533 49.61 144.296 50.8933 142.71 52.06C141.123 53.2267 139.256 54.1833 137.11 54.93C134.963 55.63 132.606 55.98 130.04 55.98C127.473 55.98 125.28 55.56 123.46 54.72C121.686 53.88 120.31 52.62 119.33 50.94C118.396 49.2133 117.93 47.1133 117.93 44.64C117.93 42.26 118.35 39.8333 119.19 37.36C120.03 34.84 121.22 32.4133 122.76 30.08C124.3 27.7467 126.096 25.67 128.15 23.85C130.25 21.9833 132.56 20.5133 135.08 19.44C137.646 18.3667 140.33 17.83 143.13 17.83C145.603 17.83 147.633 18.32 149.22 19.3C150.853 20.2333 151.67 21.82 151.67 24.06C151.67 26.1133 150.946 28.05 149.5 29.87C148.053 31.6433 146.14 33.23 143.76 34.63C141.38 35.9833 138.743 37.1033 135.85 37.99C133.003 38.83 130.156 39.3667 127.31 39.6L127.52 38.76C129.573 38.34 131.58 37.6633 133.54 36.73C135.5 35.75 137.25 34.56 138.79 33.16C140.376 31.7133 141.636 30.08 142.57 28.26C143.503 26.3933 143.97 24.3867 143.97 22.24C143.97 21.1667 143.783 20.3967 143.41 19.93C143.036 19.4167 142.5 19.16 141.8 19.16C140.54 19.16 139.14 19.86 137.6 21.26C136.06 22.66 134.59 24.5733 133.19 27C131.79 29.4267 130.646 32.2033 129.76 35.33C128.873 38.41 128.43 41.63 128.43 44.99C128.43 48.1633 128.826 50.5433 129.62 52.13C130.46 53.67 131.533 54.44 132.84 54.44Z" fill="white"/>
</svg>
