<svg width="33" height="56" viewBox="0 0 33 56" fill="none" xmlns="http://www.w3.org/2000/svg">
<path d="M16 1.8C15.44 1.8 14.7633 1.87 13.97 2.01C13.2233 2.15 12.4767 2.38333 11.73 2.71C11.03 2.99 10.4467 3.38666 9.98 3.9C10.82 3.85333 11.59 4.04 12.29 4.46C13.0367 4.88 13.6433 5.41666 14.11 6.07C14.6233 6.72333 14.88 7.51666 14.88 8.45C14.8333 9.80333 14.2967 10.97 13.27 11.95C12.2433 12.93 10.9833 13.42 9.49 13.42C8.13667 13.42 6.97 13 5.99 12.16C5.01 11.32 4.52 10.1533 4.52 8.66C4.52 7.12 4.96333 5.81333 5.85 4.74C6.78333 3.66666 7.97333 2.80333 9.42 2.15C10.8667 1.49666 12.43 1.03 14.11 0.749997C15.8367 0.423329 17.47 0.259995 19.01 0.259995C21.39 0.259995 23.5833 0.586663 25.59 1.24C27.6433 1.89333 29.2767 2.85 30.49 4.11C31.75 5.37 32.38 6.98 32.38 8.94C32.38 10.34 31.96 11.74 31.12 13.14C30.28 14.54 28.95 16.08 27.13 17.76C25.31 19.44 22.9067 21.4 19.92 23.64C17.0733 25.6933 14.81 27.3967 13.13 28.75C11.4967 30.1033 10.33 31.3167 9.63 32.39C8.97667 33.4633 8.65 34.6533 8.65 35.96C8.65 37.22 9.02333 38.2933 9.77 39.18C10.5633 40.0667 11.7767 40.51 13.41 40.51C14.39 40.51 15.37 40.3467 16.35 40.02C17.3767 39.6933 18.1933 39.25 18.8 38.69C18.0067 38.41 17.2367 37.92 16.49 37.22C15.79 36.4733 15.44 35.4933 15.44 34.28C15.44 33.02 15.8833 31.9467 16.77 31.06C17.7033 30.1733 18.87 29.73 20.27 29.73C21.3433 29.73 22.2767 30.1033 23.07 30.85C23.91 31.55 24.33 32.5067 24.33 33.72C24.33 35.1667 23.91 36.4033 23.07 37.43C22.23 38.4567 21.1333 39.2967 19.78 39.95C18.4267 40.6033 16.98 41.0933 15.44 41.42C13.9467 41.7467 12.5467 41.91 11.24 41.91C9.23333 41.91 7.41333 41.63 5.78 41.07C4.19333 40.4633 2.91 39.6 1.93 38.48C0.996667 37.3133 0.53 35.8433 0.53 34.07C0.53 32.2033 1.04333 30.5 2.07 28.96C3.14333 27.42 4.54333 25.95 6.27 24.55C8.04333 23.1033 9.93333 21.5867 11.94 20C14.1333 18.2733 15.9533 16.78 17.4 15.52C18.8933 14.2133 19.99 12.9533 20.69 11.74C21.4367 10.5267 21.81 9.19666 21.81 7.75C21.81 5.97666 21.32 4.55333 20.34 3.48C19.4067 2.36 17.96 1.8 16 1.8ZM2.77 51.78C2.77 49.9133 3.42333 48.35 4.73 47.09C6.03667 45.83 7.62333 45.2 9.49 45.2C10.9833 45.2 12.15 45.5733 12.99 46.32C13.83 47.0667 14.25 48.1167 14.25 49.47C14.25 50.59 13.9467 51.6633 13.34 52.69C12.7333 53.67 11.9167 54.4633 10.89 55.07C9.86333 55.6767 8.69667 55.98 7.39 55.98C5.94333 55.98 4.8 55.6067 3.96 54.86C3.16667 54.1133 2.77 53.0867 2.77 51.78Z" fill="white"/>
</svg>
