<svg width="247" height="125" viewBox="0 0 247 125" fill="none" xmlns="http://www.w3.org/2000/svg">
<path d="M0.272728 98V4.90909H56.0909V14.9091H11.5455V46.3636H51.9091V56.3636H11.5455V98H0.272728ZM76.4773 124.182C74.6591 124.182 73.0379 124.03 71.6136 123.727C70.1894 123.455 69.2045 123.182 68.6591 122.909L71.3864 113.455C73.9924 114.121 76.2955 114.364 78.2955 114.182C80.2955 114 82.0682 113.106 83.6136 111.5C85.1894 109.924 86.6288 107.364 87.9318 103.818L89.9318 98.3636L64.1136 28.1818H75.75L95.0227 83.8182H95.75L115.023 28.1818H126.659L97.0227 108.182C95.6894 111.788 94.0379 114.773 92.0682 117.136C90.0985 119.53 87.8106 121.303 85.2045 122.455C82.6288 123.606 79.7197 124.182 76.4773 124.182ZM147.727 124.182C145.909 124.182 144.288 124.03 142.864 123.727C141.439 123.455 140.455 123.182 139.909 122.909L142.636 113.455C145.242 114.121 147.545 114.364 149.545 114.182C151.545 114 153.318 113.106 154.864 111.5C156.439 109.924 157.879 107.364 159.182 103.818L161.182 98.3636L135.364 28.1818H147L166.273 83.8182H167L186.273 28.1818H197.909L168.273 108.182C166.939 111.788 165.288 114.773 163.318 117.136C161.348 119.53 159.061 121.303 156.455 122.455C153.879 123.606 150.97 124.182 147.727 124.182ZM243.159 28.1818V37.2727H205.523V28.1818H243.159ZM216.795 98V18.5455C216.795 14.5455 217.735 11.2121 219.614 8.54545C221.492 5.87878 223.932 3.87878 226.932 2.54545C229.932 1.21211 233.098 0.545448 236.432 0.545448C239.068 0.545448 241.22 0.757571 242.886 1.18182C244.553 1.60606 245.795 1.99999 246.614 2.36363L243.523 11.6364C242.977 11.4545 242.22 11.2273 241.25 10.9545C240.311 10.6818 239.068 10.5454 237.523 10.5454C233.977 10.5454 231.417 11.4394 229.841 13.2273C228.295 15.0151 227.523 17.6364 227.523 21.0909V98H216.795Z" fill="white"/>
</svg>
