<svg width="50" height="50" viewBox="0 0 172 44" fill="none" xmlns="http://www.w3.org/2000/svg">
<path d="M0.227273 43.4545V31.25H2.47727C3.25 30.5455 3.97727 29.5511 4.65909 28.267C5.35227 26.9716 5.9375 25.2443 6.41477 23.0852C6.90341 20.9148 7.22727 18.1591 7.38636 14.8182L8.13636 0.0909081H28.8636V31.25H32.8864V43.3864H28.8636V35H4.25V43.4545H0.227273ZM7.52273 31.25H24.8409V3.84091H11.9545L11.4091 14.8182C11.2727 17.3636 11.0341 19.6705 10.6932 21.7386C10.3523 23.7955 9.91477 25.6193 9.38068 27.2102C8.84659 28.7898 8.22727 30.1364 7.52273 31.25ZM46.4332 35.6136C44.7741 35.6136 43.2685 35.3011 41.9162 34.6761C40.5639 34.0398 39.4901 33.125 38.6946 31.9318C37.8991 30.7273 37.5014 29.2727 37.5014 27.5682C37.5014 26.0682 37.7969 24.8523 38.3878 23.9205C38.9787 22.9773 39.7685 22.2386 40.7571 21.7045C41.7457 21.1705 42.8366 20.7727 44.0298 20.5114C45.2344 20.2386 46.4446 20.0227 47.6605 19.8636C49.2514 19.6591 50.5412 19.5057 51.5298 19.4034C52.5298 19.2898 53.2571 19.1023 53.7116 18.8409C54.1776 18.5795 54.4105 18.125 54.4105 17.4773V17.3409C54.4105 15.6591 53.9503 14.3523 53.0298 13.4205C52.1207 12.4886 50.7401 12.0227 48.8878 12.0227C46.9673 12.0227 45.4616 12.4432 44.3707 13.2841C43.2798 14.125 42.5128 15.0227 42.0696 15.9773L38.2514 14.6136C38.9332 13.0227 39.8423 11.7841 40.9787 10.8977C42.1264 10 43.3764 9.375 44.7287 9.02273C46.0923 8.65909 47.4332 8.47727 48.7514 8.47727C49.5923 8.47727 50.5582 8.57955 51.6491 8.78409C52.7514 8.97727 53.8139 9.38068 54.8366 9.99432C55.8707 10.608 56.7287 11.5341 57.4105 12.7727C58.0923 14.0114 58.4332 15.6705 58.4332 17.75V35H54.4105V31.4545H54.206C53.9332 32.0227 53.4787 32.6307 52.8423 33.2784C52.206 33.9261 51.3594 34.4773 50.3026 34.9318C49.2457 35.3864 47.956 35.6136 46.4332 35.6136ZM47.0469 32C48.6378 32 49.9787 31.6875 51.0696 31.0625C52.1719 30.4375 53.0014 29.6307 53.5582 28.642C54.1264 27.6534 54.4105 26.6136 54.4105 25.5227V21.8409C54.2401 22.0455 53.8651 22.233 53.2855 22.4034C52.7173 22.5625 52.0582 22.7045 51.3082 22.8295C50.5696 22.9432 49.848 23.0455 49.1435 23.1364C48.4503 23.2159 47.8878 23.2841 47.456 23.3409C46.4105 23.4773 45.4332 23.6989 44.5241 24.0057C43.6264 24.3011 42.8991 24.75 42.3423 25.3523C41.7969 25.9432 41.5241 26.75 41.5241 27.7727C41.5241 29.1705 42.0412 30.2273 43.0753 30.9432C44.1207 31.6477 45.4446 32 47.0469 32ZM83.2983 20.0682V23.8182H68.8438V20.0682H83.2983ZM69.7983 8.81818V35H65.7756V8.81818H69.7983ZM86.3665 8.81818V35H82.3438V8.81818H86.3665ZM97.7358 29.0682L110.349 8.81818H114.986V35H110.963V14.75L98.4176 35H93.7131V8.81818H97.7358V29.0682ZM126.376 29.0682L138.99 8.81818H143.626V35H139.604V14.75L127.058 35H122.354V8.81818H126.376V29.0682ZM148.676 35V31.25H149.631C150.415 31.25 151.068 31.0966 151.591 30.7898C152.114 30.4716 152.534 29.9205 152.852 29.1364C153.182 28.3409 153.432 27.2386 153.602 25.8295C153.784 24.4091 153.915 22.6023 153.994 20.4091L154.472 8.81818H171.926V35H167.903V12.5682H158.29L157.881 21.9091C157.79 24.0568 157.597 25.9489 157.301 27.5852C157.017 29.2102 156.58 30.5739 155.989 31.6761C155.409 32.7784 154.636 33.608 153.67 34.1648C152.705 34.7216 151.494 35 150.04 35H148.676Z" fill="white"/>
</svg>
