<svg width="260" height="64" viewBox="0 0 260 64" fill="none" xmlns="http://www.w3.org/2000/svg">
<path d="M35.57 49.86C34.7767 49.86 33.89 49.8833 32.91 49.93C31.93 49.93 30.7167 49.9533 29.27 50C27.87 50 26.0967 50 23.95 50H19.75C17.51 50 15.5267 50.1867 13.8 50.56C12.0733 50.98 10.51 51.68 9.11 52.66C7.71 53.64 6.42667 54.9933 5.26 56.72C4.09333 58.4467 2.92667 60.64 1.76 63.3H0.219999C0.453333 62.74 0.71 62.0867 0.99 61.34C1.27 60.5933 1.55 59.8 1.83 58.96C2.34333 57.3733 2.88 55.6467 3.44 53.78C3.95333 51.96 4.37333 50.2333 4.7 48.6H26.82C28.36 48.6 29.55 48.46 30.39 48.18C31.23 47.8533 31.8833 47.27 32.35 46.43C32.8633 45.5433 33.33 44.26 33.75 42.58L42.99 7.86C43.69 5.34 43.7367 3.70666 43.13 2.96C42.5233 2.21333 41.38 1.84 39.7 1.84H38.72C37.6 1.84 36.6667 2.00333 35.92 2.33C35.1733 2.61 34.5667 3.19333 34.1 4.08C33.6333 4.92 33.1667 6.18 32.7 7.86C31.6733 11.7333 30.5067 15.6767 29.2 19.69C27.94 23.7033 26.5633 27.53 25.07 31.17C23.5767 34.7633 22.0133 38.0067 20.38 40.9C18.7467 43.7467 17.0433 45.9633 15.27 47.55C14.3367 48.39 13.3333 49.02 12.26 49.44C11.2333 49.8133 10.1133 50 8.9 50L9.32 48.6C10.16 48.6 10.9767 48.46 11.77 48.18C12.61 47.9 13.4033 47.41 14.15 46.71C15.9233 45.1233 17.7667 42.6033 19.68 39.15C21.64 35.6967 23.6 31.3567 25.56 26.13C27.5667 20.8567 29.48 14.7667 31.3 7.86C31.7667 6.13333 31.9533 4.87333 31.86 4.08C31.8133 3.24 31.4167 2.68 30.67 2.4C29.9233 2.07333 28.7567 1.88666 27.17 1.84L27.52 0.44C29.0133 0.579998 31.1833 0.649997 34.03 0.649997C34.6833 0.649997 35.3833 0.626664 36.13 0.579998C36.8767 0.486666 37.9733 0.44 39.42 0.44C42.0333 0.44 44.18 0.486666 45.86 0.579998C47.5867 0.626664 49.1733 0.649997 50.62 0.649997C52.7667 0.649997 54.7967 0.626664 56.71 0.579998C58.67 0.533332 60.3267 0.486666 61.68 0.44L61.33 1.84C59.7433 1.88666 58.5067 2.07333 57.62 2.4C56.7333 2.68 56.0333 3.24 55.52 4.08C55.0533 4.87333 54.5867 6.13333 54.12 7.86L44.88 42.58C44.46 44.26 44.2733 45.52 44.32 46.36C44.4133 47.2 44.8333 47.7833 45.58 48.11C46.3267 48.39 47.47 48.5533 49.01 48.6H51.18C50.5733 50.28 50.0133 52.0067 49.5 53.78C48.9867 55.6 48.52 57.3267 48.1 58.96C47.9133 59.7067 47.75 60.4067 47.61 61.06C47.5167 61.76 47.3767 62.5067 47.19 63.3H45.65C46.07 59.94 45.9767 57.28 45.37 55.32C44.7633 53.36 43.6433 51.96 42.01 51.12C40.4233 50.28 38.2767 49.86 35.57 49.86ZM67.8887 47.2C68.6353 47.2 69.452 46.8033 70.3387 46.01C71.2253 45.2167 72.1353 44.0733 73.0687 42.58C74.002 41.04 74.912 39.1733 75.7987 36.98C76.6853 34.7867 77.502 32.2433 78.2487 29.35L76.7087 36.98C75.542 40.4333 74.2587 43.1867 72.8587 45.24C71.4587 47.2933 69.9653 48.7633 68.3787 49.65C66.792 50.5367 65.1353 50.98 63.4087 50.98C60.7953 50.98 58.8353 50.21 57.5287 48.67C56.222 47.13 55.5687 45.03 55.5687 42.37C55.5687 39.85 55.9887 37.2133 56.8287 34.46C57.7153 31.7067 58.882 29.0467 60.3287 26.48C61.822 23.9133 63.4787 21.6033 65.2987 19.55C67.1653 17.4967 69.1253 15.8633 71.1787 14.65C73.2787 13.4367 75.332 12.83 77.3387 12.83C78.8787 12.83 80.0687 13.4367 80.9087 14.65C81.7487 15.8633 82.0053 17.7533 81.6787 20.32L80.9087 20.74C81.142 19.06 81.0487 17.7533 80.6287 16.82C80.2553 15.8867 79.602 15.42 78.6687 15.42C77.7353 15.42 76.6853 15.9567 75.5187 17.03C74.3987 18.1033 73.2787 19.5733 72.1587 21.44C71.0387 23.3067 69.9887 25.43 69.0087 27.81C68.0753 30.1433 67.3287 32.6167 66.7687 35.23C66.2087 37.7967 65.9287 40.34 65.9287 42.86C65.9287 44.4467 66.092 45.5667 66.4187 46.22C66.7453 46.8733 67.2353 47.2 67.8887 47.2ZM82.7287 13.88C84.7353 13.8333 86.5553 13.74 88.1887 13.6C89.822 13.4133 91.3853 13.1567 92.8787 12.83L83.7087 44.05C83.5687 44.6567 83.452 45.24 83.3587 45.8C83.312 46.3133 83.382 46.7333 83.5687 47.06C83.802 47.3867 84.1753 47.55 84.6887 47.55C85.2953 47.55 85.972 47.2 86.7187 46.5C87.4653 45.7533 88.2353 44.26 89.0287 42.02L90.2887 38.66H91.6187L89.8687 43.77C89.2153 45.6833 88.3753 47.1533 87.3487 48.18C86.322 49.2067 85.2253 49.93 84.0587 50.35C82.892 50.77 81.7487 50.98 80.6287 50.98C78.202 50.98 76.4753 50.2567 75.4487 48.81C74.7487 47.7833 74.422 46.5233 74.4687 45.03C74.562 43.49 74.8887 41.74 75.4487 39.78L82.7287 13.88ZM105.242 30.47H124.142V31.87H105.242V30.47ZM105.592 50H95.7219L104.262 19.76C104.449 19.1067 104.565 18.5233 104.612 18.01C104.705 17.4967 104.659 17.0767 104.472 16.75C104.332 16.4233 104.005 16.26 103.492 16.26C102.652 16.26 101.882 16.68 101.182 17.52C100.482 18.3133 99.7352 19.7367 98.9419 21.79L97.6119 25.36H96.2819L98.1719 20.04C98.8252 18.2667 99.5952 16.8667 100.482 15.84C101.415 14.7667 102.442 13.9967 103.562 13.53C104.729 13.0633 105.989 12.83 107.342 12.83C108.975 12.83 110.235 13.1333 111.122 13.74C112.009 14.3467 112.592 15.14 112.872 16.12C113.199 17.1 113.315 18.1733 113.222 19.34C113.129 20.46 112.942 21.5567 112.662 22.63L105.592 50ZM126.102 44.05C125.775 45.2167 125.635 46.1033 125.682 46.71C125.729 47.27 126.125 47.55 126.872 47.55C127.712 47.55 128.482 47.1533 129.182 46.36C129.929 45.52 130.652 44.0733 131.352 42.02L132.682 38.45H134.012L132.122 43.77C131.515 45.59 130.699 47.0367 129.672 48.11C128.692 49.1367 127.595 49.86 126.382 50.28C125.215 50.7467 124.002 50.98 122.742 50.98C121.482 50.98 120.409 50.77 119.522 50.35C118.682 49.93 118.029 49.3467 117.562 48.6C117.095 47.7133 116.885 46.6633 116.932 45.45C117.025 44.19 117.259 42.7667 117.632 41.18L124.702 13.81C126.615 13.7633 128.412 13.67 130.092 13.53C131.819 13.39 133.405 13.1567 134.852 12.83L126.102 44.05ZM164.36 25.43C162.633 30.5633 160.976 34.81 159.39 38.17C157.803 41.4833 156.24 44.0733 154.7 45.94C153.206 47.76 151.666 49.0667 150.08 49.86C148.493 50.6067 146.813 50.98 145.04 50.98C143.08 50.98 141.563 50.56 140.49 49.72C139.463 48.88 138.88 47.6667 138.74 46.08C138.646 44.4933 138.95 42.6033 139.65 40.41L146.44 19.76C146.906 18.4067 147 17.4967 146.72 17.03C146.486 16.5167 146.09 16.26 145.53 16.26C144.923 16.26 144.246 16.61 143.5 17.31C142.753 17.9633 141.96 19.4567 141.12 21.79L139.86 25.15H138.53L140.28 20.04C140.98 18.08 141.843 16.5867 142.87 15.56C143.943 14.5333 145.063 13.8333 146.23 13.46C147.443 13.04 148.586 12.83 149.66 12.83C151.76 12.83 153.323 13.2967 154.35 14.23C155.376 15.1167 155.936 16.4 156.03 18.08C156.123 19.7133 155.796 21.6733 155.05 23.96L148.75 42.86C147.723 45.94 147.956 47.48 149.45 47.48C150.336 47.48 151.34 46.8967 152.46 45.73C153.58 44.5633 154.746 42.9533 155.96 40.9C157.22 38.8467 158.456 36.4433 159.67 33.69C160.883 30.9367 162.05 27.9733 163.17 24.8C164.29 21.6267 165.27 18.3833 166.11 15.07L164.36 25.43ZM167.79 44.05C167.463 45.2167 167.323 46.1033 167.37 46.71C167.416 47.27 167.813 47.55 168.56 47.55C169.4 47.55 170.17 47.1533 170.87 46.36C171.616 45.52 172.34 44.0733 173.04 42.02L174.37 38.45H175.7L173.81 43.77C173.203 45.59 172.386 47.0367 171.36 48.11C170.38 49.1367 169.283 49.86 168.07 50.28C166.903 50.7467 165.69 50.98 164.43 50.98C163.17 50.98 162.096 50.77 161.21 50.35C160.37 49.93 159.716 49.3467 159.25 48.6C158.783 47.7133 158.573 46.6633 158.62 45.45C158.713 44.19 158.946 42.7667 159.32 41.18L166.39 13.81C168.303 13.7633 170.1 13.67 171.78 13.53C173.506 13.39 175.093 13.1567 176.54 12.83L167.79 44.05ZM206.127 25.43C204.401 30.5633 202.744 34.81 201.157 38.17C199.571 41.4833 198.007 44.0733 196.467 45.94C194.974 47.76 193.434 49.0667 191.847 49.86C190.261 50.6067 188.581 50.98 186.807 50.98C184.847 50.98 183.331 50.56 182.257 49.72C181.231 48.88 180.647 47.6667 180.507 46.08C180.414 44.4933 180.717 42.6033 181.417 40.41L188.207 19.76C188.674 18.4067 188.767 17.4967 188.487 17.03C188.254 16.5167 187.857 16.26 187.297 16.26C186.691 16.26 186.014 16.61 185.267 17.31C184.521 17.9633 183.727 19.4567 182.887 21.79L181.627 25.15H180.297L182.047 20.04C182.747 18.08 183.611 16.5867 184.637 15.56C185.711 14.5333 186.831 13.8333 187.997 13.46C189.211 13.04 190.354 12.83 191.427 12.83C193.527 12.83 195.091 13.2967 196.117 14.23C197.144 15.1167 197.704 16.4 197.797 18.08C197.891 19.7133 197.564 21.6733 196.817 23.96L190.517 42.86C189.491 45.94 189.724 47.48 191.217 47.48C192.104 47.48 193.107 46.8967 194.227 45.73C195.347 44.5633 196.514 42.9533 197.727 40.9C198.987 38.8467 200.224 36.4433 201.437 33.69C202.651 30.9367 203.817 27.9733 204.937 24.8C206.057 21.6267 207.037 18.3833 207.877 15.07L206.127 25.43ZM209.557 44.05C209.231 45.2167 209.091 46.1033 209.137 46.71C209.184 47.27 209.581 47.55 210.327 47.55C211.167 47.55 211.937 47.1533 212.637 46.36C213.384 45.52 214.107 44.0733 214.807 42.02L216.137 38.45H217.467L215.577 43.77C214.971 45.59 214.154 47.0367 213.127 48.11C212.147 49.1367 211.051 49.86 209.837 50.28C208.671 50.7467 207.457 50.98 206.197 50.98C204.937 50.98 203.864 50.77 202.977 50.35C202.137 49.93 201.484 49.3467 201.017 48.6C200.551 47.7133 200.341 46.6633 200.387 45.45C200.481 44.19 200.714 42.7667 201.087 41.18L208.157 13.81C210.071 13.7633 211.867 13.67 213.547 13.53C215.274 13.39 216.861 13.1567 218.307 12.83L209.557 44.05ZM250.905 44.05C250.718 44.61 250.578 45.17 250.485 45.73C250.391 46.2433 250.415 46.6867 250.555 47.06C250.741 47.3867 251.115 47.55 251.675 47.55C252.468 47.55 253.215 47.1533 253.915 46.36C254.661 45.5667 255.408 44.12 256.155 42.02L257.415 38.45H258.745L256.925 43.77C255.945 46.43 254.591 48.2967 252.865 49.37C251.185 50.4433 249.411 50.98 247.545 50.98C246.191 50.98 245.048 50.7467 244.115 50.28C243.228 49.86 242.551 49.3 242.085 48.6C241.525 47.62 241.291 46.4767 241.385 45.17C241.525 43.8633 241.781 42.5333 242.155 41.18L249.505 13.81C251.418 13.7633 253.215 13.67 254.895 13.53C256.621 13.39 258.208 13.1567 259.655 12.83L250.905 44.05ZM222.555 49.79C224.001 49.65 225.285 49.0667 226.405 48.04C227.525 47.0133 228.505 45.7067 229.345 44.12C230.231 42.4867 230.978 40.76 231.585 38.94C232.238 37.0733 232.798 35.2533 233.265 33.48C233.731 31.7067 234.128 30.1433 234.455 28.79C235.341 25.4767 236.181 22.6533 236.975 20.32C237.768 17.94 238.725 16.1433 239.845 14.93C240.965 13.67 242.341 13.04 243.975 13.04C245.795 13.04 247.078 13.9033 247.825 15.63C248.571 17.3567 248.618 19.55 247.965 22.21L247.195 22.63C247.615 20.1567 247.498 18.1733 246.845 16.68C246.238 15.14 245.258 14.37 243.905 14.37C242.738 14.37 241.735 14.8133 240.895 15.7C240.101 16.5867 239.378 17.8 238.725 19.34C238.118 20.88 237.558 22.6533 237.045 24.66C236.531 26.6667 235.995 28.7667 235.435 30.96C234.735 33.5733 233.965 36.1633 233.125 38.73C232.285 41.2967 231.281 43.5833 230.115 45.59C228.995 47.5967 227.571 49.0667 225.845 50C225.098 50.42 224.375 50.6767 223.675 50.77C222.975 50.91 222.391 50.98 221.925 50.98C219.965 50.98 218.518 50.4433 217.585 49.37C216.605 48.2967 216.115 46.99 216.115 45.45C216.115 43.6767 216.698 42.2533 217.865 41.18C218.985 40.1067 220.361 39.57 221.995 39.57C223.441 39.57 224.515 39.9433 225.215 40.69C225.961 41.39 226.335 42.3 226.335 43.42C226.335 44.7267 225.891 45.94 225.005 47.06C224.165 48.1333 223.115 48.9967 221.855 49.65C221.901 49.65 221.995 49.6733 222.135 49.72C222.275 49.7667 222.415 49.79 222.555 49.79Z" fill="white"/>
</svg>
