<svg width="111" height="36" viewBox="0 0 111 36" fill="none" xmlns="http://www.w3.org/2000/svg">
<path d="M4.65909 35H0.227273L13.0455 0.0909081H17.4091L30.2273 35H25.7955L15.3636 5.61364H15.0909L4.65909 35ZM6.29545 21.3636H24.1591V25.1136H6.29545V21.3636ZM52.642 20.0682V23.8182H38.1875V20.0682H52.642ZM39.142 8.81818V35H35.1193V8.81818H39.142ZM55.7102 8.81818V35H51.6875V8.81818H55.7102ZM80.5795 20.0682V23.8182H66.125V20.0682H80.5795ZM67.0795 8.81818V35H63.0568V8.81818H67.0795ZM83.6477 8.81818V35H79.625V8.81818H83.6477ZM98.6989 35.6136C97.0398 35.6136 95.5341 35.3011 94.1818 34.6761C92.8295 34.0398 91.7557 33.125 90.9602 31.9318C90.1648 30.7273 89.767 29.2727 89.767 27.5682C89.767 26.0682 90.0625 24.8523 90.6534 23.9205C91.2443 22.9773 92.0341 22.2386 93.0227 21.7045C94.0114 21.1705 95.1023 20.7727 96.2955 20.5114C97.5 20.2386 98.7102 20.0227 99.9261 19.8636C101.517 19.6591 102.807 19.5057 103.795 19.4034C104.795 19.2898 105.523 19.1023 105.977 18.8409C106.443 18.5795 106.676 18.125 106.676 17.4773V17.3409C106.676 15.6591 106.216 14.3523 105.295 13.4205C104.386 12.4886 103.006 12.0227 101.153 12.0227C99.233 12.0227 97.7273 12.4432 96.6364 13.2841C95.5455 14.125 94.7784 15.0227 94.3352 15.9773L90.517 14.6136C91.1989 13.0227 92.108 11.7841 93.2443 10.8977C94.392 10 95.642 9.375 96.9943 9.02273C98.358 8.65909 99.6989 8.47727 101.017 8.47727C101.858 8.47727 102.824 8.57955 103.915 8.78409C105.017 8.97727 106.08 9.38068 107.102 9.99432C108.136 10.608 108.994 11.5341 109.676 12.7727C110.358 14.0114 110.699 15.6705 110.699 17.75V35H106.676V31.4545H106.472C106.199 32.0227 105.744 32.6307 105.108 33.2784C104.472 33.9261 103.625 34.4773 102.568 34.9318C101.511 35.3864 100.222 35.6136 98.6989 35.6136ZM99.3125 32C100.903 32 102.244 31.6875 103.335 31.0625C104.438 30.4375 105.267 29.6307 105.824 28.642C106.392 27.6534 106.676 26.6136 106.676 25.5227V21.8409C106.506 22.0455 106.131 22.233 105.551 22.4034C104.983 22.5625 104.324 22.7045 103.574 22.8295C102.835 22.9432 102.114 23.0455 101.409 23.1364C100.716 23.2159 100.153 23.2841 99.7216 23.3409C98.6761 23.4773 97.6989 23.6989 96.7898 24.0057C95.892 24.3011 95.1648 24.75 94.608 25.3523C94.0625 25.9432 93.7898 26.75 93.7898 27.7727C93.7898 29.1705 94.3068 30.2273 95.3409 30.9432C96.3864 31.6477 97.7102 32 99.3125 32Z" fill="white"/>
</svg>
