<svg width="173" height="51" viewBox="0 0 173 51" fill="none" xmlns="http://www.w3.org/2000/svg">
<path d="M11.2 39.99C9.75333 41.9967 9.00667 43.63 8.96 44.89C8.91333 46.1033 9.42667 47.0133 10.5 47.62C11.5733 48.18 13.02 48.5067 14.84 48.6L14.49 50C12.53 49.9067 10.8267 49.86 9.38 49.86C7.98 49.8133 6.65 49.79 5.39 49.79C4.31667 49.79 3.43 49.8133 2.73 49.86C2.03 49.86 1.30667 49.9067 0.559999 50L0.84 48.6C1.68 48.3667 2.47333 47.9933 3.22 47.48C3.92 46.9667 4.73667 46.1967 5.67 45.17C6.55667 44.1433 7.58333 42.8133 8.75 41.18L37.94 0.0899959C38.5467 0.136665 39.1533 0.159999 39.76 0.159999C40.4133 0.159999 40.9967 0.136665 41.51 0.0899959L44.31 44.12C44.45 45.8 44.87 46.9667 45.57 47.62C46.3167 48.2267 47.04 48.5533 47.74 48.6L47.46 50C46.2933 49.9067 44.73 49.86 42.77 49.86C40.8567 49.8133 39.0367 49.79 37.31 49.79C35.21 49.79 33.2267 49.8133 31.36 49.86C29.4933 49.86 27.9767 49.9067 26.81 50L27.09 48.6C29.33 48.5067 30.9167 48.11 31.85 47.41C32.83 46.6633 33.25 45.1 33.11 42.72L31.43 10.52L33.81 8L11.2 39.99ZM17.71 29.84H38.15L37.59 31.24H16.45L17.71 29.84ZM61.1833 30.47H80.0833V31.87H61.1833V30.47ZM61.5333 50H51.6633L60.2033 19.76C60.3899 19.1067 60.5066 18.5233 60.5533 18.01C60.6466 17.4967 60.5999 17.0767 60.4133 16.75C60.2733 16.4233 59.9466 16.26 59.4333 16.26C58.5933 16.26 57.8233 16.68 57.1233 17.52C56.4233 18.3133 55.6766 19.7367 54.8833 21.79L53.5533 25.36H52.2233L54.1133 20.04C54.7666 18.2667 55.5366 16.8667 56.4233 15.84C57.3566 14.7667 58.3833 13.9967 59.5033 13.53C60.6699 13.0633 61.9299 12.83 63.2833 12.83C64.9166 12.83 66.1766 13.1333 67.0633 13.74C67.9499 14.3467 68.5333 15.14 68.8133 16.12C69.1399 17.1 69.2566 18.1733 69.1633 19.34C69.0699 20.46 68.8833 21.5567 68.6033 22.63L61.5333 50ZM82.0433 44.05C81.7166 45.2167 81.5766 46.1033 81.6233 46.71C81.67 47.27 82.0666 47.55 82.8133 47.55C83.6533 47.55 84.4233 47.1533 85.1233 46.36C85.8699 45.52 86.5933 44.0733 87.2933 42.02L88.6233 38.45H89.9533L88.0633 43.77C87.4566 45.59 86.6399 47.0367 85.6133 48.11C84.6333 49.1367 83.5366 49.86 82.3233 50.28C81.1566 50.7467 79.9433 50.98 78.6833 50.98C77.4233 50.98 76.3499 50.77 75.4633 50.35C74.6233 49.93 73.9699 49.3467 73.5033 48.6C73.0366 47.7133 72.8266 46.6633 72.8733 45.45C72.9666 44.19 73.1999 42.7667 73.5733 41.18L80.6433 13.81C82.5566 13.7633 84.3533 13.67 86.0333 13.53C87.76 13.39 89.3466 13.1567 90.7933 12.83L82.0433 44.05ZM103.361 30.47H122.261V31.87H103.361V30.47ZM103.711 50H93.841L102.381 19.76C102.568 19.1067 102.684 18.5233 102.731 18.01C102.824 17.4967 102.778 17.0767 102.591 16.75C102.451 16.4233 102.124 16.26 101.611 16.26C100.771 16.26 100.001 16.68 99.301 17.52C98.601 18.3133 97.8543 19.7367 97.061 21.79L95.731 25.36H94.401L96.291 20.04C96.9443 18.2667 97.7143 16.8667 98.601 15.84C99.5343 14.7667 100.561 13.9967 101.681 13.53C102.848 13.0633 104.108 12.83 105.461 12.83C107.094 12.83 108.354 13.1333 109.241 13.74C110.128 14.3467 110.711 15.14 110.991 16.12C111.318 17.1 111.434 18.1733 111.341 19.34C111.248 20.46 111.061 21.5567 110.781 22.63L103.711 50ZM124.221 44.05C123.894 45.2167 123.754 46.1033 123.801 46.71C123.848 47.27 124.244 47.55 124.991 47.55C125.831 47.55 126.601 47.1533 127.301 46.36C128.048 45.52 128.771 44.0733 129.471 42.02L130.801 38.45H132.131L130.241 43.77C129.634 45.59 128.818 47.0367 127.791 48.11C126.811 49.1367 125.714 49.86 124.501 50.28C123.334 50.7467 122.121 50.98 120.861 50.98C119.601 50.98 118.528 50.77 117.641 50.35C116.801 49.93 116.148 49.3467 115.681 48.6C115.214 47.7133 115.004 46.6633 115.051 45.45C115.144 44.19 115.378 42.7667 115.751 41.18L122.821 13.81C124.734 13.7633 126.531 13.67 128.211 13.53C129.938 13.39 131.524 13.1567 132.971 12.83L124.221 44.05ZM147.219 47.2C147.965 47.2 148.782 46.8033 149.669 46.01C150.555 45.2167 151.465 44.0733 152.399 42.58C153.332 41.04 154.242 39.1733 155.129 36.98C156.015 34.7867 156.832 32.2433 157.579 29.35L156.039 36.98C154.872 40.4333 153.589 43.1867 152.189 45.24C150.789 47.2933 149.295 48.7633 147.709 49.65C146.122 50.5367 144.465 50.98 142.739 50.98C140.125 50.98 138.165 50.21 136.859 48.67C135.552 47.13 134.899 45.03 134.899 42.37C134.899 39.85 135.319 37.2133 136.159 34.46C137.045 31.7067 138.212 29.0467 139.659 26.48C141.152 23.9133 142.809 21.6033 144.629 19.55C146.495 17.4967 148.455 15.8633 150.509 14.65C152.609 13.4367 154.662 12.83 156.669 12.83C158.209 12.83 159.399 13.4367 160.239 14.65C161.079 15.8633 161.335 17.7533 161.009 20.32L160.239 20.74C160.472 19.06 160.379 17.7533 159.959 16.82C159.585 15.8867 158.932 15.42 157.999 15.42C157.065 15.42 156.015 15.9567 154.849 17.03C153.729 18.1033 152.609 19.5733 151.489 21.44C150.369 23.3067 149.319 25.43 148.339 27.81C147.405 30.1433 146.659 32.6167 146.099 35.23C145.539 37.7967 145.259 40.34 145.259 42.86C145.259 44.4467 145.422 45.5667 145.749 46.22C146.075 46.8733 146.565 47.2 147.219 47.2ZM162.059 13.88C164.065 13.8333 165.885 13.74 167.519 13.6C169.152 13.4133 170.715 13.1567 172.209 12.83L163.039 44.05C162.899 44.6567 162.782 45.24 162.689 45.8C162.642 46.3133 162.712 46.7333 162.899 47.06C163.132 47.3867 163.505 47.55 164.019 47.55C164.625 47.55 165.302 47.2 166.049 46.5C166.795 45.7533 167.565 44.26 168.359 42.02L169.619 38.66H170.949L169.199 43.77C168.545 45.6833 167.705 47.1533 166.679 48.18C165.652 49.2067 164.555 49.93 163.389 50.35C162.222 50.77 161.079 50.98 159.959 50.98C157.532 50.98 155.805 50.2567 154.779 48.81C154.079 47.7833 153.752 46.5233 153.799 45.03C153.892 43.49 154.219 41.74 154.779 39.78L162.059 13.88Z" fill="white"/>
</svg>
