<svg width="354" height="65" viewBox="0 0 354 65" fill="none" xmlns="http://www.w3.org/2000/svg">
<path d="M25.67 13.83C30.01 13.83 33.3933 14.9733 35.82 17.26C38.2467 19.5 39.46 22.6033 39.46 26.57C39.46 29.6967 38.8067 32.7767 37.5 35.81C36.1933 38.8433 34.3967 41.5733 32.11 44C29.8233 46.4267 27.1633 48.3633 24.13 49.81C21.1433 51.2567 17.97 51.98 14.61 51.98C10.3633 51.98 6.98 50.86 4.46 48.62C1.94 46.38 0.68 43.23 0.68 39.17C0.68 35.9967 1.33333 32.9167 2.64 29.93C3.99333 26.9433 5.81333 24.2367 8.1 21.81C10.4333 19.3367 13.0933 17.4 16.08 16C19.1133 14.5533 22.31 13.83 25.67 13.83ZM24.55 15.09C22.59 15.09 20.77 15.8367 19.09 17.33C17.41 18.7767 15.94 20.7367 14.68 23.21C13.4667 25.6833 12.5333 28.4367 11.88 31.47C11.2267 34.5033 10.9 37.5367 10.9 40.57C10.9 44.21 11.3667 46.8233 12.3 48.41C13.2333 49.95 14.3767 50.72 15.73 50.72C17.7833 50.72 19.6267 49.95 21.26 48.41C22.8933 46.87 24.2933 44.84 25.46 42.32C26.6733 39.8 27.6067 37.0233 28.26 33.99C28.9133 30.9567 29.24 27.97 29.24 25.03C29.24 21.4367 28.7967 18.8933 27.91 17.4C27.0233 15.86 25.9033 15.09 24.55 15.09ZM66.5566 13.83C70.4299 13.83 73.3932 14.88 75.4466 16.98C77.5466 19.0333 78.5966 22.2767 78.5966 26.71C78.5966 30.6767 77.8032 34.4333 76.2166 37.98C74.6299 41.5267 72.5299 44.8167 69.9166 47.85C67.3032 50.8367 64.4099 53.4733 61.2366 55.76C58.1099 58.0467 54.9599 59.9133 51.7866 61.36C48.6132 62.8067 45.6966 63.74 43.0366 64.16L42.6166 62.76C44.9966 62.1067 47.4232 60.9867 49.8966 59.4C52.3699 57.86 54.7032 55.9 56.8966 53.52C59.0899 51.14 61.0499 48.41 62.7766 45.33C64.5499 42.25 65.9266 38.8667 66.9066 35.18C67.9332 31.4933 68.4466 27.5733 68.4466 23.42C68.4466 20.1533 68.1199 17.9833 67.4666 16.91C66.8599 15.79 65.9732 15.23 64.8066 15.23C63.2199 15.23 61.7732 15.93 60.4666 17.33C59.1599 18.73 58.0166 20.5267 57.0366 22.72C56.1032 24.8667 55.3799 27.13 54.8666 29.51C54.3999 31.8433 54.1666 34.0133 54.1666 36.02C54.1666 38.26 54.4932 39.8467 55.1466 40.78C55.7999 41.7133 56.6166 42.18 57.5966 42.18C58.6699 42.18 59.7899 41.6433 60.9566 40.57C62.1232 39.4967 63.1266 37.63 63.9666 34.97L65.1566 35.32C64.4099 37.84 63.4532 39.8467 62.2866 41.34C61.1199 42.8333 59.7899 43.9067 58.2966 44.56C56.8499 45.1667 55.3099 45.47 53.6766 45.47C50.8766 45.47 48.5199 44.5833 46.6066 42.81C44.7399 41.0367 43.8066 38.4 43.8066 34.9C43.8066 32.1467 44.3899 29.51 45.5566 26.99C46.7699 24.47 48.4266 22.23 50.5266 20.27C52.6266 18.2633 55.0299 16.7 57.7366 15.58C60.4899 14.4133 63.4299 13.83 66.5566 13.83ZM81.1663 47.78C81.1663 45.9133 81.8197 44.35 83.1263 43.09C84.4797 41.83 86.0897 41.2 87.9563 41.2C89.4497 41.2 90.6163 41.5733 91.4563 42.32C92.2963 43.0667 92.7163 44.1167 92.7163 45.47C92.7163 46.59 92.3897 47.6633 91.7363 48.69C91.1297 49.67 90.313 50.4633 89.2863 51.07C88.2597 51.6767 87.1163 51.98 85.8563 51.98C84.363 51.98 83.1963 51.6067 82.3563 50.86C81.563 50.1133 81.1663 49.0867 81.1663 47.78ZM127.457 13.83C131.797 13.83 135.18 14.9733 137.607 17.26C140.034 19.5 141.247 22.6033 141.247 26.57C141.247 29.6967 140.594 32.7767 139.287 35.81C137.98 38.8433 136.184 41.5733 133.897 44C131.61 46.4267 128.95 48.3633 125.917 49.81C122.93 51.2567 119.757 51.98 116.397 51.98C112.15 51.98 108.767 50.86 106.247 48.62C103.727 46.38 102.467 43.23 102.467 39.17C102.467 35.9967 103.12 32.9167 104.427 29.93C105.78 26.9433 107.6 24.2367 109.887 21.81C112.22 19.3367 114.88 17.4 117.867 16C120.9 14.5533 124.097 13.83 127.457 13.83ZM126.337 15.09C124.377 15.09 122.557 15.8367 120.877 17.33C119.197 18.7767 117.727 20.7367 116.467 23.21C115.254 25.6833 114.32 28.4367 113.667 31.47C113.014 34.5033 112.687 37.5367 112.687 40.57C112.687 44.21 113.154 46.8233 114.087 48.41C115.02 49.95 116.164 50.72 117.517 50.72C119.57 50.72 121.414 49.95 123.047 48.41C124.68 46.87 126.08 44.84 127.247 42.32C128.46 39.8 129.394 37.0233 130.047 33.99C130.7 30.9567 131.027 27.97 131.027 25.03C131.027 21.4367 130.584 18.8933 129.697 17.4C128.81 15.86 127.69 15.09 126.337 15.09ZM174.504 13.34L175.344 13.83C174.224 16.8167 172.777 19.1967 171.004 20.97C169.277 22.7433 167.247 23.63 164.914 23.63C163.934 23.63 162.884 23.3967 161.764 22.93C160.644 22.4633 159.547 22.02 158.474 21.6C157.447 21.18 156.49 21.04 155.604 21.18L149.094 35.18C150.587 34.3867 152.22 33.78 153.994 33.36C155.767 32.94 157.75 32.73 159.944 32.73C164.097 32.73 167.13 33.4767 169.044 34.97C170.957 36.4633 171.914 38.4933 171.914 41.06C171.914 43.6733 171.167 46.03 169.674 48.13C168.18 50.23 166.197 52.0967 163.724 53.73C161.297 55.3633 158.59 56.7167 155.604 57.79C152.617 58.91 149.607 59.75 146.574 60.31C143.54 60.9167 140.717 61.2667 138.104 61.36L138.454 60.1C140.927 60.1 143.494 59.68 146.154 58.84C148.86 58 151.357 56.7633 153.644 55.13C155.977 53.5433 157.867 51.5833 159.314 49.25C160.76 46.87 161.484 44.1867 161.484 41.2C161.484 39.24 160.97 37.7 159.944 36.58C158.964 35.4133 157.284 34.83 154.904 34.83C154.204 34.83 153.294 34.9467 152.174 35.18C151.054 35.3667 149.677 35.88 148.044 36.72L147.344 36.37L157.004 14.74C158.357 14.6467 159.57 14.7633 160.644 15.09C161.717 15.37 162.837 15.6733 164.004 16C165.17 16.3267 166.524 16.49 168.064 16.49C169.464 16.49 170.7 16.28 171.774 15.86C172.847 15.3933 173.757 14.5533 174.504 13.34ZM177.211 47.78C177.211 45.9133 177.865 44.35 179.171 43.09C180.525 41.83 182.135 41.2 184.001 41.2C185.495 41.2 186.661 41.5733 187.501 42.32C188.341 43.0667 188.761 44.1167 188.761 45.47C188.761 46.59 188.435 47.6633 187.781 48.69C187.175 49.67 186.358 50.4633 185.331 51.07C184.305 51.6767 183.161 51.98 181.901 51.98C180.408 51.98 179.241 51.6067 178.401 50.86C177.608 50.1133 177.211 49.0867 177.211 47.78ZM219.092 13.83C222.592 13.83 225.345 14.4833 227.352 15.79C229.359 17.0967 230.362 18.8933 230.362 21.18C230.362 22.9533 229.779 24.6567 228.612 26.29C227.445 27.9233 225.929 29.4867 224.062 30.98C222.242 32.4267 220.259 33.8033 218.112 35.11C216.012 36.4167 213.982 37.6533 212.022 38.82C210.109 39.94 208.475 40.99 207.122 41.97C208.289 41.97 209.572 42.1333 210.972 42.46C212.419 42.7867 213.912 43.1133 215.452 43.44C217.039 43.7667 218.555 43.93 220.002 43.93C221.775 43.93 223.199 43.65 224.272 43.09C225.392 42.53 225.952 41.69 225.952 40.57C225.952 39.17 225.112 38.0267 223.432 37.14L224.202 36.23C225.555 36.93 226.535 37.77 227.142 38.75C227.749 39.6833 228.052 40.8267 228.052 42.18C228.052 43.6733 227.679 45.1433 226.932 46.59C226.232 47.99 225.089 49.1567 223.502 50.09C221.915 50.9767 219.815 51.42 217.202 51.42C215.709 51.42 214.239 51.2567 212.792 50.93C211.345 50.6033 209.875 50.2767 208.382 49.95C206.889 49.5767 205.255 49.3667 203.482 49.32C201.709 49.2267 200.215 49.3433 199.002 49.67C197.835 49.95 196.529 50.3933 195.082 51L195.432 49.53C196.412 48.7367 197.695 47.78 199.282 46.66C200.869 45.4933 202.595 44.1867 204.462 42.74C206.375 41.2933 208.265 39.7533 210.132 38.12C211.999 36.44 213.725 34.69 215.312 32.87C216.899 31.05 218.159 29.1833 219.092 27.27C220.025 25.3567 220.492 23.42 220.492 21.46C220.492 19.5933 220.025 18.1933 219.092 17.26C218.159 16.28 216.852 15.79 215.172 15.79C213.819 15.79 212.419 16.0933 210.972 16.7C209.572 17.3067 208.265 18.1467 207.052 19.22C205.885 20.2467 204.929 21.4133 204.182 22.72C203.482 23.98 203.132 25.2867 203.132 26.64C203.132 27.76 203.435 28.6 204.042 29.16C204.695 29.72 205.745 30 207.192 30C208.499 30 209.619 29.7667 210.552 29.3C211.532 28.7867 212.559 28.0633 213.632 27.13L214.472 28.11C213.165 29.3233 211.835 30.1867 210.482 30.7C209.129 31.2133 207.869 31.47 206.702 31.47C205.955 31.47 205.162 31.3533 204.322 31.12C203.529 30.84 202.852 30.3733 202.292 29.72C201.732 29.02 201.452 28.0167 201.452 26.71C201.452 25.17 201.895 23.6533 202.782 22.16C203.669 20.62 204.882 19.22 206.422 17.96C208.009 16.7 209.875 15.6967 212.022 14.95C214.169 14.2033 216.525 13.83 219.092 13.83ZM260.963 13.83C265.303 13.83 268.686 14.9733 271.113 17.26C273.54 19.5 274.753 22.6033 274.753 26.57C274.753 29.6967 274.1 32.7767 272.793 35.81C271.486 38.8433 269.69 41.5733 267.403 44C265.116 46.4267 262.456 48.3633 259.423 49.81C256.436 51.2567 253.263 51.98 249.903 51.98C245.656 51.98 242.273 50.86 239.753 48.62C237.233 46.38 235.973 43.23 235.973 39.17C235.973 35.9967 236.626 32.9167 237.933 29.93C239.286 26.9433 241.106 24.2367 243.393 21.81C245.726 19.3367 248.386 17.4 251.373 16C254.406 14.5533 257.603 13.83 260.963 13.83ZM259.843 15.09C257.883 15.09 256.063 15.8367 254.383 17.33C252.703 18.7767 251.233 20.7367 249.973 23.21C248.76 25.6833 247.826 28.4367 247.173 31.47C246.52 34.5033 246.193 37.5367 246.193 40.57C246.193 44.21 246.66 46.8233 247.593 48.41C248.526 49.95 249.67 50.72 251.023 50.72C253.076 50.72 254.92 49.95 256.553 48.41C258.186 46.87 259.586 44.84 260.753 42.32C261.966 39.8 262.9 37.0233 263.553 33.99C264.206 30.9567 264.533 27.97 264.533 25.03C264.533 21.4367 264.09 18.8933 263.203 17.4C262.316 15.86 261.196 15.09 259.843 15.09ZM300.03 13.83C303.53 13.83 306.283 14.4833 308.29 15.79C310.296 17.0967 311.3 18.8933 311.3 21.18C311.3 22.9533 310.716 24.6567 309.55 26.29C308.383 27.9233 306.866 29.4867 305 30.98C303.18 32.4267 301.196 33.8033 299.05 35.11C296.95 36.4167 294.92 37.6533 292.96 38.82C291.046 39.94 289.413 40.99 288.06 41.97C289.226 41.97 290.51 42.1333 291.91 42.46C293.356 42.7867 294.85 43.1133 296.39 43.44C297.976 43.7667 299.493 43.93 300.94 43.93C302.713 43.93 304.136 43.65 305.21 43.09C306.33 42.53 306.89 41.69 306.89 40.57C306.89 39.17 306.05 38.0267 304.37 37.14L305.14 36.23C306.493 36.93 307.473 37.77 308.08 38.75C308.686 39.6833 308.99 40.8267 308.99 42.18C308.99 43.6733 308.616 45.1433 307.87 46.59C307.17 47.99 306.026 49.1567 304.44 50.09C302.853 50.9767 300.753 51.42 298.14 51.42C296.646 51.42 295.176 51.2567 293.73 50.93C292.283 50.6033 290.813 50.2767 289.32 49.95C287.826 49.5767 286.193 49.3667 284.42 49.32C282.646 49.2267 281.153 49.3433 279.94 49.67C278.773 49.95 277.466 50.3933 276.02 51L276.37 49.53C277.35 48.7367 278.633 47.78 280.22 46.66C281.806 45.4933 283.533 44.1867 285.4 42.74C287.313 41.2933 289.203 39.7533 291.07 38.12C292.936 36.44 294.663 34.69 296.25 32.87C297.836 31.05 299.096 29.1833 300.03 27.27C300.963 25.3567 301.43 23.42 301.43 21.46C301.43 19.5933 300.963 18.1933 300.03 17.26C299.096 16.28 297.79 15.79 296.11 15.79C294.756 15.79 293.356 16.0933 291.91 16.7C290.51 17.3067 289.203 18.1467 287.99 19.22C286.823 20.2467 285.866 21.4133 285.12 22.72C284.42 23.98 284.07 25.2867 284.07 26.64C284.07 27.76 284.373 28.6 284.98 29.16C285.633 29.72 286.683 30 288.13 30C289.436 30 290.556 29.7667 291.49 29.3C292.47 28.7867 293.496 28.0633 294.57 27.13L295.41 28.11C294.103 29.3233 292.773 30.1867 291.42 30.7C290.066 31.2133 288.806 31.47 287.64 31.47C286.893 31.47 286.1 31.3533 285.26 31.12C284.466 30.84 283.79 30.3733 283.23 29.72C282.67 29.02 282.39 28.0167 282.39 26.71C282.39 25.17 282.833 23.6533 283.72 22.16C284.606 20.62 285.82 19.22 287.36 17.96C288.946 16.7 290.813 15.6967 292.96 14.95C295.106 14.2033 297.463 13.83 300.03 13.83ZM353.45 0.459996L353.87 1.86C351.35 2.56 348.83 3.70333 346.31 5.29C343.79 6.87666 341.387 8.90666 339.1 11.38C336.86 13.8067 334.854 16.6067 333.08 19.78C331.307 22.9067 329.907 26.3833 328.88 30.21C327.854 34.0367 327.34 38.0967 327.34 42.39C327.34 45.6567 327.644 47.85 328.25 48.97C328.904 50.0433 329.814 50.58 330.98 50.58C332.52 50.58 333.944 49.88 335.25 48.48C336.604 47.08 337.747 45.3067 338.68 43.16C339.614 40.9667 340.337 38.68 340.85 36.3C341.364 33.92 341.62 31.75 341.62 29.79C341.62 27.5033 341.27 25.9167 340.57 25.03C339.917 24.0967 339.1 23.63 338.12 23.63C337.047 23.63 335.927 24.1667 334.76 25.24C333.64 26.3133 332.637 28.18 331.75 30.84L330.63 30.49C331.33 27.9233 332.264 25.9167 333.43 24.47C334.644 22.9767 335.974 21.9267 337.42 21.32C338.914 20.6667 340.454 20.34 342.04 20.34C344.887 20.34 347.244 21.2267 349.11 23C351.024 24.7733 351.98 27.41 351.98 30.91C351.98 33.6633 351.374 36.3 350.16 38.82C348.994 41.34 347.36 43.6033 345.26 45.61C343.16 47.57 340.734 49.1333 337.98 50.3C335.274 51.42 332.357 51.98 329.23 51.98C325.357 51.98 322.37 50.9533 320.27 48.9C318.217 46.8 317.19 43.5333 317.19 39.1C317.19 34.9933 317.984 31.12 319.57 27.48C321.204 23.7933 323.35 20.41 326.01 17.33C328.67 14.2033 331.587 11.4733 334.76 9.14C337.98 6.80667 341.2 4.89333 344.42 3.4C347.687 1.90667 350.697 0.926665 353.45 0.459996Z" fill="white"/>
</svg>
